<?xml version="1.0" encoding="UTF-8"?>
<svg version="1.1" xmlns="http://www.w3.org/2000/svg" width="517" height="414">
<path d="M0 0 C170.61 0 341.22 0 517 0 C517 136.62 517 273.24 517 414 C346.39 414 175.78 414 0 414 C0 277.38 0 140.76 0 0 Z " fill="#010101" transform="translate(0,0)"/>
<path d="M0 0 C1.93888092 0.00636726 1.93888092 0.00636726 3.91693115 0.01286316 C7.31014258 0.02417528 10.70295264 0.05351975 14.0960083 0.0869751 C17.57566909 0.11797499 21.0553964 0.13143158 24.53515625 0.14648438 C31.33089133 0.17840681 38.12636376 0.22943192 44.921875 0.29296875 C45.17356445 1.05851074 45.42525391 1.82405273 45.68457031 2.61279297 C46.84373992 6.13226989 48.00777364 9.65012013 49.171875 13.16796875 C49.56761719 14.37195313 49.96335938 15.5759375 50.37109375 16.81640625 C52.42131068 23.00066714 54.55034459 29.10287359 57.06738281 35.11376953 C57.99371883 37.47619105 58.7222869 39.8545403 59.421875 42.29296875 C60.39108518 45.661629 61.51532295 48.86823832 62.859375 52.10546875 C64.44641081 55.94935397 65.73072438 59.80845314 66.921875 63.79296875 C68.31967858 68.45231403 69.91728638 72.9143643 71.7734375 77.40625 C73.32907275 81.31650324 74.75698435 85.26744562 76.171875 89.23046875 C76.44241699 89.9771582 76.71295898 90.72384766 76.99169922 91.49316406 C78.07392624 94.54681428 78.921875 97.02829851 78.921875 100.29296875 C85.16749797 99.36223554 91.41112455 98.4188871 97.65356445 97.46704102 C99.77422611 97.14517073 101.89531701 96.82611475 104.0168457 96.51000977 C107.07882957 96.05326564 110.1390902 95.58618188 113.19921875 95.1171875 C114.13708725 94.9795549 115.07495575 94.8419223 116.04124451 94.70011902 C126.28836211 93.27690616 126.28836211 93.27690616 135.078125 88.35546875 C135.5215625 87.67484375 135.965 86.99421875 136.421875 86.29296875 C137.11796875 85.27203125 137.11796875 85.27203125 137.828125 84.23046875 C140.59066403 79.33682819 140.81957202 73.6791347 139.390625 68.2890625 C137.88516857 64.50087593 135.86944835 62.03726118 132.921875 59.29296875 C132.921875 58.63296875 132.921875 57.97296875 132.921875 57.29296875 C130.611875 56.96296875 128.301875 56.63296875 125.921875 56.29296875 C125.921875 55.63296875 125.921875 54.97296875 125.921875 54.29296875 C115.361875 54.29296875 104.801875 54.29296875 93.921875 54.29296875 C93.921875 53.63296875 93.921875 52.97296875 93.921875 52.29296875 C92.643125 52.27234375 91.364375 52.25171875 90.046875 52.23046875 C82.6827374 51.36341958 77.50456018 47.20977754 72.6875 41.76953125 C65.88755426 32.84779793 62.02320396 23.33205696 58.9140625 12.62890625 C58.1100865 9.92577434 57.25561101 7.25772453 56.35986328 4.58447266 C56.09037872 3.77926178 55.82089417 2.9740509 55.54324341 2.1444397 C55.23566605 1.22796158 55.23566605 1.22796158 54.921875 0.29296875 C64.29387789 0.19959596 73.66571654 0.12886705 83.03808594 0.08572006 C87.3917707 0.06499408 91.74513335 0.03695699 96.09863281 -0.00878906 C100.31324348 -0.05279002 104.52754767 -0.07628048 108.74237061 -0.08654022 C110.33686131 -0.0938357 111.93133847 -0.10807635 113.5256958 -0.12995148 C138.88773288 -0.46355184 159.15903623 8.21087391 177.38671875 25.72265625 C182.27241076 30.67610054 185.4714792 35.76285639 187.921875 42.29296875 C188.24027344 43.08316406 188.55867188 43.87335938 188.88671875 44.6875 C193.13017969 55.62442008 195.1787317 66.04644601 195.234375 77.73046875 C195.24259277 78.99105103 195.24259277 78.99105103 195.25097656 80.27709961 C195.19294304 85.29649907 194.42316636 89.46610768 192.921875 94.29296875 C192.921875 95.61296875 192.921875 96.93296875 192.921875 98.29296875 C196.551875 99.61296875 200.181875 100.93296875 203.921875 102.29296875 C203.921875 102.95296875 203.921875 103.61296875 203.921875 104.29296875 C205.241875 104.29296875 206.561875 104.29296875 207.921875 104.29296875 C207.921875 104.95296875 207.921875 105.61296875 207.921875 106.29296875 C208.61539062 106.50953125 209.30890625 106.72609375 210.0234375 106.94921875 C221.88973785 112.45057633 231.30792593 125.4076251 235.671875 137.29296875 C236.45020776 139.61700459 237.19761288 141.9515186 237.921875 144.29296875 C238.18154053 145.05174316 238.44120605 145.81051758 238.70874023 146.59228516 C244.58065373 164.45144824 240.88656865 183.02820227 233.3515625 199.78515625 C229.11037915 207.6733475 223.19849031 213.99756118 216.921875 220.29296875 C216.34953125 220.88851562 215.7771875 221.4840625 215.1875 222.09765625 C198.00545867 238.48259257 174.06839633 240.04269202 151.7578125 239.78125 C149.38458 239.77190091 147.01133772 239.76479474 144.63809204 239.7598114 C138.45337315 239.74090669 132.26926053 239.69195155 126.08477783 239.6362915 C119.74931026 239.58473882 113.41374278 239.5622211 107.078125 239.53710938 C94.69244494 239.48381421 82.30721078 239.39870623 69.921875 239.29296875 C69.72553467 238.69871094 69.52919434 238.10445312 69.3269043 237.4921875 C68.42269575 234.75857084 67.51605134 232.02576784 66.609375 229.29296875 C66.30064453 228.35839844 65.99191406 227.42382812 65.67382812 226.4609375 C64.25971064 222.2036996 62.82367675 217.96608715 61.23291016 213.77124023 C57.92854084 205.00450846 57.56322655 195.91910328 60.921875 187.10546875 C64.87579701 178.59618308 71.13366041 170.99529239 79.921875 167.29296875 C94.79057621 162.29296875 94.79057621 162.29296875 101.921875 162.29296875 C102.93662851 164.80871183 103.93366832 167.32930978 104.921875 169.85546875 C105.20804688 170.55994141 105.49421875 171.26441406 105.7890625 171.99023438 C106.05976563 172.68955078 106.33046875 173.38886719 106.609375 174.109375 C106.98642578 175.05985718 106.98642578 175.05985718 107.37109375 176.02954102 C108.1255949 179.13015277 107.95446554 182.11329624 107.921875 185.29296875 C116.47547619 185.18547437 125.02898762 185.0728424 133.58243275 184.95362949 C137.55403185 184.8984376 141.52563837 184.84502357 145.49731445 184.7956543 C149.32935182 184.74795567 153.16129999 184.69561086 156.99323082 184.640028 C158.45604929 184.61962937 159.9188922 184.60091217 161.38175392 184.58389473 C163.42882755 184.55979548 165.47573316 184.52974867 167.52270508 184.49829102 C168.68852615 184.48274673 169.85434723 184.46720245 171.05549622 184.45118713 C174.57552275 184.2568887 176.36303869 183.81226979 178.96484375 181.39453125 C182.82381207 176.93809061 185.47155243 173.65638213 185.546875 167.60546875 C185.18115039 163.28991832 184.70722099 159.26942119 182.921875 155.29296875 C179.90903767 152.97795071 179.90903767 152.97795071 176.921875 151.29296875 C176.921875 150.63296875 176.921875 149.97296875 176.921875 149.29296875 C168.86042967 147.25956635 161.08565926 146.94424294 152.796875 146.98046875 C151.47953369 146.9846582 150.16219238 146.98884766 148.80493164 146.99316406 C122.89699596 147.2197521 93.78021275 150.93180739 69.75390625 161.171875 C66.74429255 162.36326691 63.70739108 163.36384341 60.62719727 164.35449219 C37.4217014 171.83276409 15.75388755 183.10449946 -4.078125 197.29296875 C-5.14417969 198.05351562 -6.21023437 198.8140625 -7.30859375 199.59765625 C-13.09074661 203.83350461 -18.51648072 208.32122722 -23.78125 213.18359375 C-25.83747851 215.07196687 -27.94098908 216.87277458 -30.078125 218.66796875 C-34.23007748 222.24465071 -37.69272567 226.3425504 -41.1953125 230.546875 C-50.57728773 239.48390561 -59.09476094 240.1248412 -71.4609375 239.87890625 C-73.12814802 239.86769516 -74.7953785 239.85916403 -76.46261597 239.85317993 C-80.81962067 239.83043148 -85.1753971 239.77163295 -89.53192139 239.70495605 C-93.98986197 239.64322837 -98.44800389 239.61610032 -102.90625 239.5859375 C-111.63076773 239.52187262 -120.35429294 239.41966758 -129.078125 239.29296875 C-127.03159892 229.77183535 -127.03159892 229.77183535 -125.7109375 225.828125 C-125.46472656 225.09013672 -125.21851562 224.35214844 -124.96484375 223.59179688 C-124.71347656 222.85380859 -124.46210937 222.11582031 -124.203125 221.35546875 C-123.95949219 220.62134766 -123.71585937 219.88722656 -123.46484375 219.13085938 C-122.17607237 215.30127188 -120.79053468 211.53489868 -119.26074219 207.79492188 C-116.85444564 201.80751659 -114.68394195 195.74368956 -112.5234375 189.6640625 C-112.09940643 188.47555191 -111.67537537 187.28704132 -111.23849487 186.06251526 C-110.11826387 182.92141862 -108.99970897 179.77973562 -107.88195801 176.63775635 C-106.76268457 173.49298242 -105.64094391 170.34908985 -104.51953125 167.20507812 C-102.40574689 161.27708451 -100.29681717 155.34737917 -98.1897583 149.41699219 C-97.18516705 146.59378906 -96.17627844 143.77217407 -95.16552734 140.95117188 C-94.62591512 139.43882401 -94.08635881 137.92645618 -93.546875 136.4140625 C-93.19630539 135.44163857 -93.19630539 135.44163857 -92.83865356 134.4495697 C-91.15478599 129.71327905 -89.92393493 124.93259728 -88.78125 120.04296875 C-87.57568656 115.32787619 -85.79769904 110.83974281 -84.078125 106.29296875 C-83.26100737 104.0237929 -82.44875549 101.75286075 -81.640625 99.48046875 C-81.21910156 98.30355469 -80.79757813 97.12664062 -80.36328125 95.9140625 C-79.50438081 93.49399956 -78.6580665 91.06943387 -77.82421875 88.640625 C-76.01499371 83.41712576 -74.23779745 78.39687097 -71.578125 73.54296875 C-68.76343357 68.22337896 -67.34450872 62.60141056 -65.86523438 56.79980469 C-64.64273218 52.0527665 -63.09265941 47.76305726 -61.078125 43.29296875 C-60.56596012 41.92245347 -60.06325695 40.54828465 -59.578125 39.16796875 C-58.39316776 35.95253789 -56.87709125 33.2162889 -55.078125 30.29296875 C-54.665625 29.19984375 -54.253125 28.10671875 -53.828125 26.98046875 C-49.4369087 16.62974462 -38.34404298 8.64081965 -28.32806396 4.17170715 C-18.98940609 0.52439163 -9.93293902 -0.12518151 0 0 Z " fill="#FDFDFD" transform="translate(203.078125,61.70703125)"/>
<path d="M0 0 C4.29 0 8.58 0 13 0 C13.31453125 1.03898437 13.6290625 2.07796875 13.953125 3.1484375 C14.38519451 4.55735981 14.81749897 5.96621009 15.25 7.375 C15.45496094 8.05433594 15.65992188 8.73367187 15.87109375 9.43359375 C17.02309421 13.16886796 18.29481482 16.80224229 19.78125 20.41796875 C22.60878355 27.3597375 25.0007357 34.45431407 27.42871094 41.54321289 C28.2571595 43.95837193 29.09326289 46.37079645 29.9296875 48.78320312 C30.45879822 50.32275697 30.98746067 51.86246497 31.515625 53.40234375 C31.8905307 54.48043556 31.8905307 54.48043556 32.27301025 55.58030701 C33.27183381 58.5161819 34 60.87535923 34 64 C33.46858398 64.21503174 32.93716797 64.43006348 32.38964844 64.65161133 C14.68643393 71.87505356 -1.74170413 80.45421316 -17.8125 90.8125 C-19.03948608 91.60285645 -19.03948608 91.60285645 -20.29125977 92.40917969 C-24.6885561 95.30147751 -28.72402803 98.33566478 -32.59643555 101.9050293 C-34 103 -34 103 -36 103 C-34.56835847 95.73301219 -32.35813408 88.97190637 -29.82421875 82.01953125 C-29.41718216 80.88907883 -29.01014557 79.7586264 -28.59077454 78.59391785 C-27.29481086 74.99823645 -25.99133015 71.40533543 -24.6875 67.8125 C-23.82305994 65.4188031 -22.95912303 63.02492444 -22.09570312 60.63085938 C-20.44980204 56.06884277 -18.80109759 51.50785684 -17.14990234 46.94775391 C-15.44784483 42.24436748 -13.75920925 37.53652967 -12.08203125 32.82421875 C-10.6637062 28.84176154 -9.22140153 24.87137917 -7.72412109 20.91796875 C-6.22788286 16.95490483 -4.77509603 12.97557418 -3.3125 9 C-2.99216797 8.12988281 -2.67183594 7.25976562 -2.34179688 6.36328125 C-1.5609837 4.24226635 -0.78046139 2.12114437 0 0 Z " fill="#060606" transform="translate(196,116)"/>
<path d="M0 0 C0.66 0.33 1.32 0.66 2 1 C-2.32893185 6.18419194 -6.76564995 10.72706118 -12 15 C-12 10.39852874 -9.10228152 8.19311408 -6 5 C-4.05341967 3.24193983 -2.06456557 1.62215867 0 0 Z " fill="#C7C7C7" transform="translate(164,72)"/>
<path d="M0 0 C0.66 0.33 1.32 0.66 2 1 C-2.29 5.29 -6.58 9.58 -11 14 C-11 10.30159372 -10.17133056 9.68584567 -7.75 7 C-7.14671875 6.319375 -6.5434375 5.63875 -5.921875 4.9375 C-4.06233388 3.06284066 -2.15205789 1.52358081 0 0 Z " fill="#C7C7C7" transform="translate(279,231)"/>
<path d="M0 0 C0.66 0.33 1.32 0.66 2 1 C-0.64 3.97 -3.28 6.94 -6 10 C-6.99 9.67 -7.98 9.34 -9 9 C-6.03 6.03 -3.06 3.06 0 0 Z " fill="#464646" transform="translate(175,277)"/>
<path d="M0 0 C-1.4096347 0.70180531 -2.82807641 1.38593958 -4.25 2.0625 C-5.03890625 2.44535156 -5.8278125 2.82820313 -6.640625 3.22265625 C-9.25993522 4.08564091 -10.44855176 3.93045933 -13 3 C-11.5903653 2.29819469 -10.17192359 1.61406042 -8.75 0.9375 C-7.96109375 0.55464844 -7.1721875 0.17179687 -6.359375 -0.22265625 C-3.74006478 -1.08564091 -2.55144824 -0.93045933 0 0 Z " fill="#979797" transform="translate(184,65)"/>
<path d="M0 0 C1.60080151 4.00200378 0.29279692 7.04556236 -1 11 C-1.66 11 -2.32 11 -3 11 C-2.69078116 9.54096742 -2.37751201 8.08279278 -2.0625 6.625 C-1.88847656 5.81289062 -1.71445313 5.00078125 -1.53515625 4.1640625 C-1 2 -1 2 0 0 Z " fill="#727272" transform="translate(163,208)"/>
</svg>
